<svg width="117" height="30" viewBox="0 0 117 30" fill="none" xmlns="http://www.w3.org/2000/svg">
<g clip-path="url(#clip0_401_2980)">
<path d="M12.09 3.2102C13.47 4.5302 14.16 6.1802 14.16 8.1602C14.16 10.1402 13.47 11.8002 12.09 13.1402C10.71 14.4602 8.94 15.1202 6.78 15.1202H3.51V22.5002H0V1.2002H6.78C8.94 1.2002 10.71 1.8702 12.09 3.2102ZM9.63 10.8002C10.35 10.1002 10.71 9.2202 10.71 8.1602C10.71 7.1002 10.35 6.2302 9.63 5.5502C8.93 4.8502 7.97 4.5002 6.75 4.5002H3.51V11.8202H6.75C7.97 11.8202 8.93 11.4802 9.63 10.8002Z" fill="#0F0F0F"/>
<path d="M29.6795 20.5502C28.1795 22.0502 26.3195 22.8002 24.0995 22.8002C21.8795 22.8002 20.0095 22.0502 18.4895 20.5502C16.9895 19.0302 16.2395 17.1802 16.2395 15.0002C16.2395 12.8202 16.9895 10.9802 18.4895 9.4802C20.0095 7.9602 21.8795 7.2002 24.0995 7.2002C26.3195 7.2002 28.1795 7.9602 29.6795 9.4802C31.1995 10.9802 31.9595 12.8202 31.9595 15.0002C31.9595 17.1802 31.1995 19.0302 29.6795 20.5502ZM24.0995 19.7402C25.3995 19.7402 26.4695 19.2902 27.3095 18.3902C28.1695 17.4702 28.5995 16.3402 28.5995 15.0002C28.5995 13.6602 28.1695 12.5402 27.3095 11.6402C26.4695 10.7202 25.3995 10.2602 24.0995 10.2602C22.7795 10.2602 21.6895 10.7202 20.8295 11.6402C19.9895 12.5402 19.5695 13.6602 19.5695 15.0002C19.5695 16.3402 19.9895 17.4702 20.8295 18.3902C21.6895 19.2902 22.7795 19.7402 24.0995 19.7402Z" fill="#0F0F0F"/>
<path d="M35.8784 22.5V0H39.1784V22.5H35.8784Z" fill="#0F0F0F"/>
<path d="M49.0126 28.77H45.3826L48.5926 21.69L42.1426 7.5H45.7726L50.3626 18.12L54.9826 7.5H58.6426L49.0126 28.77Z" fill="#0F0F0F"/>
<path d="M67.9989 29.0702C65.9589 29.0702 64.2789 28.5702 62.9589 27.5702C61.6589 26.5702 60.9089 25.2702 60.7089 23.6702H63.9489C64.5289 25.3902 65.9089 26.2502 68.0889 26.2502C69.2689 26.2502 70.2389 25.8602 70.9989 25.0802C71.7789 24.3202 72.1689 23.2402 72.1689 21.8402V20.0702C71.6889 20.7502 71.0189 21.3102 70.1589 21.7502C69.2989 22.1902 68.3689 22.4102 67.3689 22.4102C65.3489 22.4102 63.6389 21.6802 62.2389 20.2202C60.8589 18.7402 60.1689 16.9302 60.1689 14.7902C60.1689 12.6702 60.8589 10.8802 62.2389 9.4202C63.6389 7.9402 65.3489 7.2002 67.3689 7.2002C68.3689 7.2002 69.2989 7.4202 70.1589 7.8602C71.0189 8.2802 71.6889 8.8302 72.1689 9.5102V7.5002H75.4689V21.5702C75.4689 24.0502 74.7589 25.9202 73.3389 27.1802C71.9389 28.4402 70.1589 29.0702 67.9989 29.0702ZM64.7889 18.0902C65.6489 18.9502 66.7089 19.3802 67.9689 19.3802C69.2289 19.3802 70.2889 18.9502 71.1489 18.0902C72.0089 17.2102 72.4389 16.1102 72.4389 14.7902C72.4389 13.4702 72.0089 12.3802 71.1489 11.5202C70.2889 10.6402 69.2289 10.2002 67.9689 10.2002C66.7089 10.2002 65.6489 10.6402 64.7889 11.5202C63.9289 12.3802 63.4989 13.4702 63.4989 14.7902C63.4989 16.1102 63.9289 17.2102 64.7889 18.0902Z" fill="#0F0F0F"/>
<path d="M80.5105 22.5V0H83.8105V22.5H80.5105Z" fill="#0F0F0F"/>
<path d="M101.205 20.5502C99.7049 22.0502 97.8449 22.8002 95.6249 22.8002C93.4049 22.8002 91.5349 22.0502 90.0149 20.5502C88.5149 19.0302 87.7649 17.1802 87.7649 15.0002C87.7649 12.8202 88.5149 10.9802 90.0149 9.4802C91.5349 7.9602 93.4049 7.2002 95.6249 7.2002C97.8449 7.2002 99.7049 7.9602 101.205 9.4802C102.725 10.9802 103.485 12.8202 103.485 15.0002C103.485 17.1802 102.725 19.0302 101.205 20.5502ZM95.6249 19.7402C96.9249 19.7402 97.9949 19.2902 98.8349 18.3902C99.6949 17.4702 100.125 16.3402 100.125 15.0002C100.125 13.6602 99.6949 12.5402 98.8349 11.6402C97.9949 10.7202 96.9249 10.2602 95.6249 10.2602C94.3049 10.2602 93.2149 10.7202 92.3549 11.6402C91.5149 12.5402 91.0949 13.6602 91.0949 15.0002C91.0949 16.3402 91.5149 17.4702 92.3549 18.3902C93.2149 19.2902 94.3049 19.7402 95.6249 19.7402Z" fill="#0F0F0F"/>
<path d="M113.621 22.6501C112.101 22.6501 110.861 22.2301 109.901 21.3901C108.961 20.5301 108.491 19.2901 108.491 17.6701V10.4401H105.371V7.50008H108.491V3.33008H111.791V7.50008V10.4401V17.1301C111.791 18.0501 111.991 18.7101 112.391 19.1101C112.791 19.4901 113.431 19.6801 114.311 19.6801C115.031 19.6801 115.621 19.5801 116.081 19.3801V22.3201C115.361 22.5401 114.541 22.6501 113.621 22.6501Z" fill="#0F0F0F"/>
<path d="M113.89 7.5C114.718 7.5 115.39 8.17157 115.39 9C115.39 9.82843 114.718 10.5 113.89 10.5C113.061 10.5 112.39 9.82843 112.39 9C112.39 8.17157 113.061 7.5 113.89 7.5Z" fill="#0541B5"/>
</g>
<defs>
<clipPath id="clip0_401_2980">
<rect width="117" height="30" fill="white"/>
</clipPath>
</defs>
</svg>
